<svg xmlns="http://www.w3.org/2000/svg" width="16.341" height="16.341" viewBox="0 0 16.341 16.341">
  <path id="Icon_iconamoon-player-pause-thin" data-name="Icon iconamoon-player-pause-thin" d="M7.5,9.549A2.049,2.049,0,0,1,9.549,7.5h1.024a2.049,2.049,0,0,1,2.049,2.049V19.792a2.049,2.049,0,0,1-2.049,2.049H9.549A2.049,2.049,0,0,1,7.5,19.792Zm9.219,0A2.049,2.049,0,0,1,18.768,7.5h1.024a2.049,2.049,0,0,1,2.049,2.049V19.792a2.049,2.049,0,0,1-2.049,2.049H18.768a2.049,2.049,0,0,1-2.049-2.049Z" transform="translate(-6.5 -6.5)" fill="none" stroke="#9bbcda" stroke-linejoin="round" stroke-width="2"/>
</svg>
