<?xml version="1.0" encoding="UTF-8"?>
<svg id="Layer_2" xmlns="http://www.w3.org/2000/svg" viewBox="0 0 1875.23 511.76">
  <defs>
    <style>
      .cls-1 {
        fill: #4a586f;
      }

      .cls-2 {
        fill: #9cbdd8;
      }
    </style>
  </defs>
  <g id="Layer_1-2" data-name="Layer_1">
    <g>
      <path class="cls-2" d="M419.05,202.62l-12.15-28.83s28.26-63.67,25.78-66.12l-37.38-36.46c-2.54-2.51-66.25,26.56-66.25,26.56l-29.4-11.86s-25.93-64.54-29.5-64.54h-25.25v159.85h.01c42.41,0,76.99,33.78,76.99,75.32,0,41.55-34.58,75.37-76.99,75.37h-.01v159.8h27.49c3.64,0,27.67-64.67,27.67-64.67l29.41-11.9s64.9,27.64,67.41,25.21l37.34-36.51c2.6-2.57-27.15-64.88-27.15-64.88l12.11-28.79s65.93-25.41,65.93-28.88v-51.65c0-3.57-66.07-27.02-66.07-27.02Z"/>
      <path class="cls-1" d="M1097.75,381.52c0,2.56-.55,4.38-1.65,5.47-1.1,1.1-3.04,1.89-5.84,2.37-5.6,1.34-15.37,2.52-29.3,3.56-13.94,1.04-25.34,1.55-34.22,1.55-17.78,0-32.95-2.1-45.55-6.3-12.59-4.2-22.55-11.92-29.85-23.18-7.3-11.26-10.95-26.93-10.95-47.01V121.18c0-1.82.79-3.52,2.37-5.11,1.58-1.59,3.29-2.37,5.12-2.37h37.05c1.83,0,3.54.79,5.12,2.37,1.58,1.58,2.38,3.29,2.38,5.11v196.8c0,12.18,2.1,20.57,6.29,25.2,4.21,4.62,11.78,6.93,22.73,6.93h68.83c2.31,0,4.14.67,5.48,2.01,1.35,1.34,2.01,3.17,2.01,5.48v23.92Z"/>
      <path class="cls-1" d="M1711.01,120.09c0,.37-.03.67-.08.92-.07.25-.15.54-.28.91l-61.34,234.41c-6.57,25.43-23.85,38.15-51.85,38.15s-45.45-12.72-52.03-38.15l-61.33-234.41c0-.48-.04-.85-.09-1.1-.06-.24-.15-.48-.27-.73,0-1.94.64-3.49,1.91-4.65,1.28-1.16,2.9-1.73,4.84-1.73h39.62c1.7,0,3.22.61,4.56,1.83,1.33,1.21,2.19,2.74,2.55,4.56l54.22,224.73c.61,2.44,1.31,4.05,2.1,4.84.79.79,2.1,1.19,3.92,1.19s3.11-.4,3.84-1.19c.73-.79,1.39-2.4,2-4.84l54.22-224.73c.37-1.82,1.21-3.35,2.56-4.56,1.34-1.21,2.86-1.83,4.57-1.83h39.61c1.94,0,3.56.58,4.84,1.73,1.27,1.16,1.91,2.71,1.91,4.65Z"/>
      <path class="cls-1" d="M1875.23,385.53c0,2.07-.79,3.83-2.37,5.29-1.58,1.46-3.28,2.19-5.11,2.19h-37.06c-1.83,0-3.53-.73-5.11-2.19-1.59-1.46-2.38-3.22-2.38-5.29V122.28c0-1.94.76-3.62,2.29-5.02,1.52-1.4,3.25-2.1,5.21-2.1h37.06c1.94,0,3.67.7,5.21,2.1,1.52,1.4,2.28,3.08,2.28,5.02v263.25Z"/>
      <g>
        <path class="cls-1" d="M1.1,231.65c-.58,6.15-.94,12.35-1.08,18.62h255.81v-18.62H1.1Z"/>
        <path class="cls-1" d="M255.82,221.73V0C126.09,0,18.91,96.56,2.22,221.73h253.6Z"/>
        <path class="cls-1" d="M255.82,278.8v-18.62H0c.1,6.26.43,12.47.98,18.62h254.85Z"/>
        <path class="cls-1" d="M2.04,288.72c16.12,125.81,123.6,223.04,253.79,223.04v-223.04H2.04Z"/>
      </g>
      <g>
        <rect class="cls-1" x="615.77" y="260.18" width="52.4" height="18.62"/>
        <rect class="cls-1" x="615.77" y="231.65" width="52.4" height="18.62"/>
        <path class="cls-1" d="M815.48,162.9c-9-17.46-21.54-30.27-37.61-38.43-16.06-8.15-34.57-12.23-55.49-12.23s-39.43,4.08-55.5,12.23c-16.06,8.16-28.6,20.97-37.6,38.43-8.19,15.87-12.64,35.49-13.39,58.83h52.42c.79-20.95,5.14-36.62,13.09-46.97,8.83-11.5,22.48-17.25,40.99-17.25s32.15,5.75,40.98,17.25c8.82,11.5,13.24,29.55,13.24,54.14v50.38c0,24.46-4.42,42.51-13.24,54.13-8.82,11.62-22.48,17.43-40.98,17.43s-32.16-5.81-40.99-17.43c-7.65-10.07-11.97-24.98-12.99-44.69h-52.44c.96,22.35,5.39,41.21,13.31,56.56,9,17.47,21.55,30.28,37.6,38.43,16.07,8.15,34.57,12.23,55.5,12.23s39.43-4.08,55.49-12.23c16.07-8.15,28.61-20.96,37.61-38.43,9.01-17.46,13.51-39.46,13.51-65.99v-50.38c0-26.53-4.5-48.53-13.51-66Z"/>
      </g>
      <g>
        <rect class="cls-1" x="1171.26" y="260.18" width="52.39" height="18.62"/>
        <rect class="cls-1" x="1171.26" y="231.65" width="52.39" height="18.62"/>
        <path class="cls-1" d="M1370.98,162.9c-9-17.46-21.54-30.27-37.6-38.43-16.07-8.15-34.57-12.23-55.5-12.23s-39.43,4.08-55.49,12.23c-16.07,8.16-28.6,20.97-37.61,38.43-8.18,15.87-12.64,35.49-13.39,58.83h52.41c.8-20.95,5.15-36.62,13.1-46.97,8.82-11.5,22.48-17.25,40.97-17.25s32.16,5.75,40.98,17.25c8.83,11.5,13.24,29.55,13.24,54.14v50.38c0,24.46-4.41,42.51-13.24,54.13-8.82,11.62-22.47,17.43-40.98,17.43s-32.15-5.81-40.97-17.43c-7.65-10.07-11.98-24.98-13-44.69h-52.43c.96,22.35,5.39,41.21,13.31,56.56,9,17.47,21.54,30.28,37.61,38.43,16.06,8.15,34.57,12.23,55.49,12.23s39.43-4.08,55.5-12.23c16.07-8.15,28.6-20.96,37.6-38.43,9-17.46,13.52-39.46,13.52-65.99v-50.38c0-26.53-4.51-48.53-13.52-66Z"/>
      </g>
    </g>
  </g>
</svg>